<svg preserveAspectRatio="none" width="100%" height="100%" overflow="visible" style="display: block;" viewBox="0 0 77.0396 42.0216" fill="none" xmlns="http://www.w3.org/2000/svg">
<path id="Vector 13090" d="M31.1827 11.3392C19.0435 14.1137 1.66752 29.6819 0 42.0216C11.1724 30.5155 19.51 27.5141 32.8502 25.8466C43.5224 24.5126 52.1935 26.6248 53.861 28.0144L49.0252 37.3525C51.4709 35.8518 56.6135 32.9287 61.6984 31.5162C67.7014 29.8487 74.4271 29.7373 77.0396 30.5155C77.0396 28.7925 76.0057 23.7122 71.8703 17.1755C67.7348 10.6388 61.5316 3.33505 56.0288 0L58.0298 9.83839C55.0839 9.72722 45.3566 8.09958 31.1827 11.3392Z" fill="url(#paint0_linear_0_78)"/>
<defs>
<linearGradient id="paint0_linear_0_78" x1="6.16984" y1="37.019" x2="71.7035" y2="26.1801" gradientUnits="userSpaceOnUse">
<stop stop-color="#00CE00"/>
<stop offset="1" stop-color="#00CE00"/>
</linearGradient>
</defs>
</svg>
