<svg preserveAspectRatio="none" width="100%" height="100%" overflow="visible" style="display: block;" viewBox="0 0 95 95" fill="none" xmlns="http://www.w3.org/2000/svg">
<g id="Frame 2087326010">
<path id="Ellipse 1578" d="M48.3017 0.00676552C56.7235 0.148924 64.9561 2.52799 72.1556 6.9001C79.3551 11.2722 85.2625 17.4801 89.2723 24.8875C93.2821 32.2949 95.2501 40.6353 94.9746 49.0538C94.699 57.4724 92.1899 65.6663 87.7043 72.7956L71.5862 62.6544C74.2735 58.3833 75.7767 53.4744 75.9418 48.4309C76.1068 43.3874 74.9278 38.3907 72.5256 33.953C70.1233 29.5153 66.5842 25.7961 62.271 23.1768C57.9579 20.5575 53.0258 19.1322 47.9803 19.0471L48.3017 0.00676552Z" fill="var(--fill-0, #2FC9B3)"/>
<path id="Ellipse 1579" d="M47.5 0C40.1096 -8.81294e-08 32.8212 1.72446 26.2144 5.03623C19.6076 8.348 13.8647 13.1557 9.4424 19.077C5.02014 24.9982 2.04055 31.8697 0.7406 39.1449C-0.55935 46.42 -0.143795 53.8981 1.95422 60.9845L20.2138 55.5785C18.9569 51.3331 18.7079 46.853 19.4867 42.4945C20.2655 38.136 22.0505 34.0193 24.6999 30.4719C27.3492 26.9245 30.7898 24.0442 34.7479 22.0602C38.706 20.0761 43.0725 19.043 47.5 19.043L47.5 0Z" fill="var(--fill-0, #3268CC)"/>
<path id="Ellipse 1581" d="M40.9715 94.5492C49.805 95.775 58.8053 94.4891 66.9422 90.8388C75.0792 87.1885 82.0241 81.3211 86.9823 73.9082L71.1537 63.321C68.1832 67.7621 64.0225 71.2771 59.1477 73.464C54.2729 75.6509 48.8809 76.4213 43.5888 75.6869L40.9715 94.5492Z" fill="var(--fill-0, #34ADD1)"/>
<path id="Ellipse 1580" d="M2.23374 61.895C4.885 70.2321 9.78721 77.675 16.3998 83.403C23.0124 89.131 31.0784 92.9215 39.7084 94.3566L42.8321 75.5715C37.6619 74.7118 32.8296 72.4409 28.868 69.0093C24.9065 65.5777 21.9696 61.1187 20.3812 56.124L2.23374 61.895Z" fill="var(--fill-0, #3094CB)"/>
</g>
</svg>
