<svg preserveAspectRatio="none" width="100%" height="100%" overflow="visible" style="display: block;" viewBox="0 0 95 95" fill="none" xmlns="http://www.w3.org/2000/svg">
<g id="Frame 2087326010">
<path id="Ellipse 1578" d="M48.3017 0.00676552C56.7382 0.149172 64.9846 2.53628 72.1926 6.92259C79.4006 11.3089 85.3102 17.5361 89.3134 24.9637C93.3167 32.3913 95.2692 40.7512 94.9702 49.1836C94.6711 57.6161 92.1312 65.8167 87.6118 72.942C83.0924 80.0673 76.7565 85.8602 69.2558 89.7248C61.7552 93.5894 53.3604 95.3863 44.935 94.9307C36.5096 94.4751 28.3576 91.7833 21.3174 87.1323C14.2773 82.4813 8.60307 76.039 4.87841 68.4678L21.9656 60.0617C24.1971 64.5976 27.5964 68.4571 31.8142 71.2435C36.0319 74.0299 40.9157 75.6425 45.9633 75.9155C51.011 76.1884 56.0402 75.1119 60.5338 72.7966C65.0274 70.4814 68.8232 67.0109 71.5308 62.7421C74.2383 58.4734 75.7599 53.5605 75.9391 48.5087C76.1183 43.4568 74.9486 38.4484 72.5502 33.9986C70.1519 29.5488 66.6115 25.8181 62.2932 23.1903C57.9749 20.5625 53.0346 19.1324 47.9803 19.0471L48.3017 0.00676552Z" fill="var(--fill-0, #2FC9B3)"/>
<path id="Ellipse 1579" d="M47.5 0C45.1871 -2.75811e-08 42.8773 0.168932 40.589 0.505448L43.3597 19.3458C44.7306 19.1442 46.1144 19.043 47.5 19.043L47.5 0Z" fill="var(--fill-0, #3268CC)"/>
<path id="Ellipse 1581" d="M6.04441 24.312C2.3636 30.8926 0.302235 38.2548 0.0307936 45.79C-0.240648 53.3252 1.28563 60.8167 4.48341 67.645L21.729 59.5688C19.8132 55.478 18.8988 50.9898 19.0615 46.4755C19.2241 41.9613 20.459 37.5506 22.6642 33.6082L6.04441 24.312Z" fill="var(--fill-0, #34ADD1)"/>
<path id="Ellipse 1580" d="M39.629 0.656667C32.7486 1.81278 26.2072 4.47041 20.4701 8.44064C14.7329 12.4109 9.94083 17.5962 6.43445 23.628L22.8979 33.1984C24.9985 29.5848 27.8694 26.4783 31.3065 24.0998C34.7436 21.7212 38.6625 20.129 42.7846 19.4364L39.629 0.656667Z" fill="var(--fill-0, #3094CB)"/>
</g>
</svg>
