<svg preserveAspectRatio="none" width="100%" height="100%" overflow="visible" style="display: block;" viewBox="0 0 95.0001 95.0001" fill="none" xmlns="http://www.w3.org/2000/svg">
<g id="Frame 2087326010">
<path id="Ellipse 1578" d="M48.3017 0.00676552C60.2548 0.208531 71.6923 4.9101 80.3317 13.1732C88.9711 21.4363 94.177 32.6533 94.9105 44.5856C95.644 56.5179 91.8512 68.288 84.2889 77.5471C76.7266 86.8061 65.9511 92.8732 54.1127 94.5375L51.4616 75.6799C58.5539 74.6828 65.0095 71.0481 69.54 65.501C74.0706 59.954 76.3428 52.9026 75.9034 45.754C75.4639 38.6054 72.3451 31.8854 67.1693 26.935C61.9935 21.9846 55.1413 19.1679 47.9803 19.0471L48.3017 0.00676552Z" fill="var(--fill-0, #2FC9B3)"/>
<path id="Ellipse 1579" d="M47.5 0C37.1071 -1.23935e-07 27.001 3.4086 18.7311 9.7032L30.2647 24.8561C35.2191 21.0851 41.2737 19.043 47.5 19.043L47.5 0Z" fill="var(--fill-0, #3268CC)"/>
<path id="Ellipse 1581" d="M1.42208 59.0358C4.23633 70.2769 11.0628 80.1015 20.6162 86.6601C30.1697 93.2186 41.7911 96.0586 53.2926 94.6455L50.9703 75.7446C44.0798 76.5912 37.1175 74.8898 31.3941 70.9606C25.6707 67.0314 21.581 61.1455 19.895 54.411L1.42208 59.0358Z" fill="var(--fill-0, #34ADD1)"/>
<path id="Ellipse 1580" d="M18.21 10.1056C11.0752 15.6941 5.68805 23.2071 2.68447 31.7578C-0.319121 40.3085 -0.813808 49.54 1.25879 58.3628L19.7971 54.0078C18.5555 48.7222 18.8518 43.1916 20.6513 38.0689C22.4507 32.9462 25.6781 28.4452 29.9525 25.0972L18.21 10.1056Z" fill="var(--fill-0, #3094CB)"/>
</g>
</svg>
