<svg preserveAspectRatio="none" width="100%" height="100%" overflow="visible" style="display: block;" viewBox="0 0 16.7143 17.8539" fill="none" xmlns="http://www.w3.org/2000/svg">
<g id="Group 2087326333">
<path id="Ellipse 1569 (Stroke)" d="M10.0002 5.0001C10.0002 3.02766 8.40137 1.42882 6.42892 1.42882C4.45647 1.42882 2.85763 3.02766 2.85763 5.0001C2.85763 6.97255 4.45647 8.57139 6.42892 8.57139V10.0001C3.6675 10.0001 1.42892 7.76153 1.42892 5.0001C1.42892 2.23868 3.6675 0.000104632 6.42892 0.000104632C9.19034 0.000104632 11.4289 2.23868 11.4289 5.0001C11.4289 7.76153 9.19034 10.0001 6.42892 10.0001V8.57139C8.40137 8.57139 10.0002 6.97255 10.0002 5.0001Z" fill="var(--fill-0, #3F3F3F)"/>
<path id="Vector 13050 (Stroke)" d="M12.1435 17.1387C12.1433 16.3947 11.6959 15.1219 10.789 14.0225C9.89792 12.9424 8.65449 12.1387 7.1435 12.1387C5.09096 12.1387 3.79845 12.98 2.94526 14.0205C2.06875 15.0895 1.63701 16.3971 1.40815 17.3125C1.31247 17.6951 0.924511 17.9275 0.541939 17.832C0.15925 17.7364 -0.0742033 17.3485 0.0214314 16.9658C0.268725 15.9766 0.765229 14.4271 1.84077 13.1152C2.93996 11.7748 4.62461 10.7109 7.1435 10.7109C9.20382 10.711 10.8174 11.8125 11.8906 13.1133C12.9475 14.3944 13.5721 15.9779 13.5722 17.1387C13.5722 17.5332 13.2519 17.8535 12.8574 17.8535C12.463 17.8534 12.1435 17.5331 12.1435 17.1387Z" fill="var(--fill-0, #3F3F3F)"/>
<path id="Vector 13053 (Stroke)" d="M15.2855 17.1391C15.2854 14.4893 13.9583 12.6312 12.8236 12.0639C12.4708 11.8874 12.3279 11.4587 12.5043 11.1059C12.6807 10.753 13.1095 10.6101 13.4623 10.7865C15.1847 11.6477 16.7141 14.0749 16.7143 17.1391C16.7143 17.5335 16.3948 17.8538 16.0004 17.8539C15.6059 17.8539 15.2855 17.5336 15.2855 17.1391Z" fill="var(--fill-0, #3F3F3F)"/>
<path id="Vector 13052 (Stroke)" d="M12.824 0.78648C13.1768 0.610145 13.6056 0.753011 13.782 1.10582C14.5243 2.59043 15.3399 4.95073 14.535 7.36558C14.3531 7.91099 13.9981 8.5586 13.5818 9.13316C13.1705 9.70096 12.6434 10.2757 12.0799 10.6107C11.7408 10.8123 11.3019 10.7008 11.1004 10.3617C10.8988 10.0226 11.0103 9.58375 11.3494 9.38218C11.671 9.191 12.0632 8.79548 12.4256 8.29527C12.7831 7.80178 13.0561 7.28345 13.1795 6.91343C13.8031 5.04263 13.1909 3.11702 12.5047 1.74449C12.3283 1.39165 12.4712 0.962901 12.824 0.78648Z" fill="var(--fill-0, #3F3F3F)"/>
</g>
</svg>
