<svg preserveAspectRatio="none" width="100%" height="100%" overflow="visible" style="display: block;" viewBox="0 0 27.4074 27.0715" fill="none" xmlns="http://www.w3.org/2000/svg">
<g id="Group 2087326339">
<path id="Vector 13099" d="M7.4537 7.74425C4.95379 7.11916 3.20369 2.49434 6.20369 1.49434C8.51282 0.724627 10.9701 3.11466 12.5495 5.30133C13.1011 6.06498 14.3229 6.07395 14.8772 5.31229C16.868 2.57687 20.018 -0.316197 22.4539 2.11966C25.4539 5.11966 21.2039 7.11938 18.7039 7.74425" stroke="var(--stroke-0, #00CE00)" stroke-width="2.40741" stroke-linecap="round"/>
<path id="Vector 13098" d="M25 13.9928H2.40741C1.74262 13.9928 1.2037 13.4539 1.2037 12.7891V8.94649C1.2037 8.2817 1.74262 7.74278 2.40741 7.74278H25C25.6648 7.74278 26.2037 8.2817 26.2037 8.94649V12.7891C26.2037 13.4539 25.6648 13.9928 25 13.9928Z" stroke="var(--stroke-0, #00CE00)" stroke-width="2.40741" stroke-linecap="round"/>
<path id="Vector 13097" d="M13.7037 25.8678V7.74278" stroke="var(--stroke-0, #00CE00)" stroke-width="2.40741" stroke-linecap="round"/>
<path id="Vector 13096" d="M4.3287 13.9928V24.6641C4.3287 25.3289 4.86762 25.8678 5.53241 25.8678H21.25C21.9148 25.8678 22.4537 25.3289 22.4537 24.6641V13.9928" stroke="var(--stroke-0, #00CE00)" stroke-width="2.40741" stroke-linecap="round"/>
</g>
</svg>
