<svg preserveAspectRatio="none" width="100%" height="100%" overflow="visible" style="display: block;" viewBox="0 0 28 28" fill="none" xmlns="http://www.w3.org/2000/svg">
<g id="Frame" clip-path="url(#clip0_0_79)">
<path id="Vector" d="M13.5909 28.0043C12.4499 27.967 11.2436 27.998 10.0497 27.8738C7.2485 27.585 4.70532 25.3087 4.07419 22.5697C3.92184 21.9082 3.84412 21.2188 3.83479 20.5387C3.80681 18.3027 3.82236 16.0668 3.82547 13.8309C3.82857 12.6601 4.46903 11.7906 5.53543 11.4924C5.64114 11.4614 5.75617 11.4458 5.86499 11.4396C6.32201 11.4055 6.3189 11.4086 6.32201 10.9303C6.33134 9.80615 6.29714 8.68197 6.37176 7.564C6.55208 4.88086 7.88274 2.86541 10.2083 1.57042C14.4677 -0.802163 19.8276 1.57663 20.9686 6.3156C21.1272 6.97396 21.1738 7.66648 21.2018 8.34658C21.2391 9.2658 21.2111 10.1881 21.2049 11.1105C21.2049 11.2937 21.208 11.4334 21.4599 11.4458C22.4268 11.4893 23.5056 12.3309 23.518 13.6787C23.5429 16.1041 23.5678 18.5325 23.5118 20.9579C23.4341 24.5292 20.7448 27.4763 17.1881 27.8831C16.0191 28.0167 14.8314 27.967 13.5909 28.0043ZM13.7681 11.4303C15.2853 11.4303 16.8025 11.421 18.3197 11.4396C18.6586 11.4427 18.7364 11.3309 18.727 11.0173C18.7053 10.4241 18.7301 9.82789 18.7177 9.23164C18.7053 8.55775 18.7488 7.87455 18.6338 7.21618C18.1363 4.34362 15.2356 2.54244 12.4313 3.32191C10.4819 3.86227 9.01443 5.56407 8.86209 7.59195C8.77193 8.78756 8.82478 9.99248 8.80613 11.1943C8.80302 11.4614 8.97712 11.4303 9.14812 11.4303C10.6902 11.4303 12.2292 11.4303 13.7681 11.4303ZM12.453 20.989C12.4561 20.989 12.4561 20.989 12.453 20.989C12.4561 21.2374 12.4499 21.4828 12.4561 21.7312C12.481 22.3864 13.0002 22.8926 13.6531 22.8989C14.334 22.9051 14.8594 22.4175 14.8812 21.7374C14.8967 21.2871 14.8936 20.8399 14.8843 20.3896C14.8749 20.048 14.9993 19.7934 15.276 19.5822C15.8512 19.1443 16.1652 18.5419 16.2367 17.8307C16.3642 16.5606 15.59 15.4581 14.3278 15.0855C13.2334 14.7625 11.9649 15.3184 11.4053 16.3618C10.8208 17.4518 11.0726 18.7686 12.0426 19.5543C12.3473 19.7996 12.4872 20.0698 12.4561 20.4486C12.4437 20.6287 12.453 20.812 12.453 20.989Z" fill="var(--fill-0, #00CE00)"/>
</g>
<defs>
<clipPath id="clip0_0_79">
<rect width="28" height="28" fill="white"/>
</clipPath>
</defs>
</svg>
