<svg preserveAspectRatio="none" width="100%" height="100%" overflow="visible" style="display: block;" viewBox="0 0 206 195" fill="none" xmlns="http://www.w3.org/2000/svg">
<g id="eggplant" clip-path="url(#clip0_0_4)">
<rect id="Rectangle 40564" width="206" height="195" rx="30" fill="var(--fill-0, #A170FE)"/>
<ellipse id="Ellipse 1554" cx="143.51" cy="97.7655" rx="9.28572" ry="5.69798" transform="rotate(46.8061 143.51 97.7655)" fill="var(--fill-0, #BB96FF)"/>
<ellipse id="Ellipse 1556" cx="9.28572" cy="5.69798" rx="9.28572" ry="5.69798" transform="matrix(-0.68447 0.729041 0.729041 0.68447 64.8356 91.0957)" fill="var(--fill-0, #BB96FF)"/>
<ellipse id="Ellipse 1555" cx="149.488" cy="89.7938" rx="5.60697" ry="2.49257" transform="rotate(46.8061 149.488 89.7938)" fill="var(--fill-0, #BB96FF)"/>
<ellipse id="Ellipse 1557" cx="5.60697" cy="2.49257" rx="5.60697" ry="2.49257" transform="matrix(-0.68447 0.729041 0.729041 0.68447 58.6757 88)" fill="var(--fill-0, #BB96FF)"/>
<path id="Vector 942" d="M135.893 60.5471C127.845 57.4518 119.643 60.5441 120.417 64.4171C120.417 66.7385 126.608 67.5075 132.024 71.38C137.441 75.2527 140.536 76.0271 143.631 72.9325C145.953 70.6112 145.953 64.4161 135.893 60.5471Z" fill="var(--fill-0, #8B58E9)"/>
<path id="Vector 943" d="M71.9289 60.2639C79.9765 57.1686 88.1789 60.2609 87.4052 64.1339C87.4052 66.4553 81.2143 67.2243 75.798 71.0968C70.3813 74.9695 67.2861 75.7439 64.1911 72.6493C61.8695 70.328 61.8694 64.1329 71.9289 60.2639Z" fill="var(--fill-0, #8B58E9)"/>
<path id="Vector 953" d="M49.2454 25.3944C47.0437 28.839 39.5519 29.1696 39.7191 29.6933C40.771 32.9892 45.1728 39.1762 54.3649 37.5572C63.5569 35.9381 69.4743 25.5301 71.284 20.5284C72.3823 19.4149 70.5725 27.1968 70.0884 31.3761C69.6043 35.5553 70.513 44.6551 72.2113 45.7027C73.9096 46.7504 81.7363 45.0672 87.9286 39.351C94.3769 33.3984 95.9057 23.599 97.008 21.6854C97.2892 21.1973 97.6492 21.8554 97.6864 22.4174C97.9392 26.2297 98.9708 32.1286 100.333 35.8639C103.502 44.5501 111.005 50.0955 113.038 49.8007C118.37 49.0276 121.297 40.4738 122.465 33.5213C123.508 27.3108 123.627 18.6667 124.175 18.0768C125.271 16.897 127.781 23.489 130.223 29.161C133.275 36.251 137.86 40.0686 146.695 41.7438C153.763 43.084 163.945 38.8558 167.583 36.5877C170.177 34.7951 163.492 36.242 158.855 31.6112C153.058 25.8227 160.628 19.6063 152.181 5.08172C142.449 -11.6504 136.259 -12.6759 119.754 -16.8695C103.25 -21.0632 88.4852 -21.3196 70.3419 -5.04604C52.1986 11.2275 54.0932 17.8098 49.2454 25.3944Z" fill="var(--fill-0, #30D158)"/>
<path id="Vector 937" d="M114.164 88.6725C114.995 82.4894 120.603 72.0288 136.391 79.6509" stroke="var(--stroke-0, black)" stroke-width="4" stroke-linecap="round"/>
<path id="Vector 938" d="M97.069 89.7914C95.9651 83.6512 89.8987 73.4492 74.4642 81.7631" stroke="var(--stroke-0, black)" stroke-width="4" stroke-linecap="round"/>
<path id="Vector 939" d="M77.8691 108.13C79.9326 111.999 87.9163 118.963 103.405 118.963C121.464 118.963 128.941 109.936 132.036 105.809" stroke="var(--stroke-0, black)" stroke-width="4" stroke-linecap="round"/>
<path id="Vector 940" d="M74.0001 110.453C76.5795 109.422 79.4168 107.358 80.1906 101.941" stroke="var(--stroke-0, black)" stroke-width="4" stroke-linecap="round"/>
<path id="Vector 941" d="M136.678 108.131C134.099 107.099 131.262 105.036 130.488 99.6191" stroke="var(--stroke-0, black)" stroke-width="4" stroke-linecap="round"/>
</g>
<defs>
<clipPath id="clip0_0_4">
<rect width="206" height="195" fill="white"/>
</clipPath>
</defs>
</svg>
