<svg width="82.18" height="25.10" overflow="visible" style="display: block;" viewBox="0 0 82.1833 25.102" fill="none" xmlns="http://www.w3.org/2000/svg">
<g id="Frame" clip-path="url(#clip0_0_10)">
<path id="Vector" d="M56.1875 4.43532C56.3727 4.74518 56.6042 5.04079 56.736 5.37558C56.8856 5.7531 56.9853 6.16268 57.0316 6.56514C57.3735 9.37878 57.5231 12.2031 56.9532 14.9989C56.711 16.1885 56.3442 17.3781 55.8384 18.4822C55.2971 19.6682 54.6311 20.8292 53.8368 21.8621C52.7862 23.2297 51.041 22.9591 49.8906 22.0224C48.9076 21.221 48.2737 20.2879 48.06 18.9808C47.7822 17.289 47.2907 15.6329 46.8455 13.7631C46.5107 14.3009 46.126 14.7639 45.9017 15.2946C44.6872 18.1652 43.576 21.0928 41.7631 23.65C40.4845 25.4557 38.1089 25.705 36.9514 23.6856C36.5775 23.0339 36.4564 22.2289 36.2534 21.4881C36.1714 21.189 36.1857 20.8649 36.1358 20.3164C35.5054 20.8257 35.0282 21.2068 34.5581 21.595C33.0586 22.8308 31.3384 23.1799 29.4899 22.6991C28.5283 22.4498 27.1535 21.0821 27.1963 19.8747C27.2355 18.8454 27.4349 17.8019 27.6985 16.8011C28.0902 15.3088 28.8417 13.9732 29.9708 12.9047C30.9359 11.9894 32.1718 12.0998 33.3258 12.3313C34.1734 12.5023 34.5046 14.3009 33.8172 14.9633C33.1334 15.6222 32.3855 16.2775 31.545 16.6907C30.8398 17.0362 30.3233 17.4208 30.131 18.1545C29.9173 18.9772 29.6894 19.8106 29.6075 20.6512C29.5184 21.5843 30.6581 22.0972 31.805 21.6626C33.4219 21.0501 34.8074 20.0956 35.9293 18.7742C36.0397 18.646 36.1857 18.5142 36.2177 18.3646C36.5454 16.8866 36.8018 15.3907 37.1758 13.9234C37.5248 12.5593 37.9772 11.2201 38.4046 9.87384C38.7358 8.82318 39.0777 7.77608 39.4481 6.73966C39.8256 5.68187 40.2494 4.64189 40.6412 3.59123C40.8514 3.02494 41.0793 2.45865 41.2253 1.87455C41.3464 1.39374 41.4354 0.795395 42.048 0.991282C42.568 1.15511 43.3195 1.39374 43.145 2.23427C42.999 2.94658 42.7782 3.64465 42.5645 4.33916C42.1442 5.72461 41.6812 7.09582 41.2787 8.48839C40.8407 9.99137 40.4382 11.5015 40.0429 13.0151C39.8506 13.7524 39.644 14.4968 39.5692 15.2483C39.3662 17.2962 39.1917 19.3476 39.1062 21.4027C39.0884 21.8478 39.3769 22.5032 39.733 22.7133C40.2957 23.0481 40.8122 22.5317 41.09 22.058C41.9483 20.5942 42.7782 19.1126 43.5546 17.606C44.2776 16.2028 44.9258 14.7603 45.5882 13.325C46.1403 12.1283 46.6567 10.9174 47.1945 9.71357C47.3227 9.42865 47.4189 9.09742 47.629 8.88373C47.9033 8.60236 48.3128 8.19634 48.5871 8.2462C48.9076 8.30319 49.3243 8.76975 49.3884 9.11523C49.6378 10.4722 49.7375 11.8541 49.9405 13.2182C50.1791 14.8351 50.4498 16.4521 50.7418 18.0619C50.8701 18.7706 50.9591 19.5257 51.2796 20.149C51.7996 21.1605 52.5191 21.2103 53.3988 20.4731C54.4708 19.5756 54.9089 18.3005 55.3648 17.0682C56.5935 13.7595 56.4617 10.3119 56.2552 6.87144C56.2302 6.47254 55.9952 6.09145 55.9168 5.69256C55.8456 5.33284 55.8598 4.95531 55.8349 4.58491C55.9489 4.53505 56.0664 4.48518 56.1875 4.43532Z" fill="var(--fill-0, #CFCFCF)"/>
<path id="Vector_2" d="M61.85 13.8689C62.3771 13.7763 62.7475 13.673 63.1215 13.6516C64.019 13.6018 64.4464 13.9793 64.4856 14.8697C64.5176 15.6034 64.4927 16.3371 64.4927 17.2239C65.4329 16.736 66.1844 16.2694 66.9965 15.9489C67.8406 15.6141 67.9011 14.9018 68.0863 14.2073C68.1967 13.7941 68.3463 13.3917 68.4816 12.9856C68.617 12.5761 68.7594 12.1665 69.3329 12.3766C70.0309 12.633 70.437 13.3347 70.3265 13.9223C70.0274 15.5001 69.7603 17.085 69.4967 18.6663C69.4504 18.937 69.4896 19.2219 69.4896 19.774C70.0487 19.1899 70.4583 18.8444 70.761 18.4242C71.6942 17.1135 72.6166 15.7957 73.4857 14.4423C73.8703 13.844 74.2015 13.178 74.3939 12.4977C74.5541 11.9314 74.8248 11.5717 75.3412 11.8032C75.7544 11.9884 76.2886 12.4514 76.3207 12.8289C76.4168 13.9081 76.2922 15.005 76.2352 16.0949C76.139 17.9433 75.993 19.7882 75.936 21.6367C75.9218 22.1139 76.1711 22.5983 76.2993 23.0791C76.4097 23.1076 76.5165 23.1361 76.627 23.1646C76.9831 22.7443 77.4639 22.3811 77.6705 21.9002C78.3401 20.3332 78.9705 18.7447 79.5083 17.1277C80.1707 15.1297 80.7085 13.0925 81.3389 11.0838C81.4244 10.8095 81.7378 10.6101 81.9444 10.375C82.0227 10.4284 82.1011 10.4818 82.1795 10.5353C82.0049 11.3687 81.8803 12.2163 81.6417 13.0284C81.1288 14.7807 80.5696 16.5187 80.0033 18.2532C79.3836 20.1444 78.8316 22.0641 77.6456 23.7166C76.9689 24.6569 75.2344 24.5572 74.4936 23.389C74.0484 22.6874 73.71 21.8219 73.6352 21.0027C73.4999 19.4891 73.5961 17.954 73.5961 16.4297C73.5035 16.3905 73.4073 16.3549 73.3147 16.3157C72.8054 17.0387 72.2818 17.7546 71.7903 18.4918C71.281 19.254 70.8572 20.0767 70.3016 20.7962C69.8101 21.4337 69.1156 21.7293 68.2858 21.3767C67.5307 21.0597 67.1389 20.4863 67.1532 19.6743C67.171 18.791 67.2315 17.9113 67.2778 16.9034C67.1211 16.9212 66.9003 16.8891 66.7294 16.971C66.1809 17.231 65.6288 17.4946 65.1302 17.8329C64.8738 18.0074 64.5888 18.3209 64.5461 18.6058C64.2541 20.5397 62.9363 21.7293 61.4119 22.6161C60.0122 23.4317 57.8183 22.1389 57.6331 20.5041C57.4728 19.1009 57.5939 17.7368 58.032 16.3406C58.4701 14.9445 58.8939 13.5911 59.8306 12.4585C60.0692 12.17 60.5678 11.8281 60.8421 11.8994C61.3371 12.0311 61.8714 12.3588 61.8144 13.0675C61.7966 13.324 61.8358 13.5804 61.85 13.8689ZM61.4653 14.6418C61.2801 15.2508 61.07 15.8313 60.9382 16.4261C60.8599 16.7894 60.7495 17.2773 60.9204 17.5444C61.3336 18.1962 62.0957 18.2354 62.744 18.0502C63.1037 17.9469 63.6023 17.4803 63.6059 17.1669C63.6201 16.4582 63.9513 15.6105 63.182 15.0407C63.1393 15.0086 63.0716 15.005 63.0111 14.9908C62.5053 14.8768 61.996 14.7593 61.4653 14.6418ZM60.5144 18.8444C60.3969 19.4071 60.2473 20.034 60.1333 20.6644C60.0229 21.2912 60.3435 21.5655 60.9881 21.3731C62.3094 20.9814 62.9007 19.8986 63.4812 18.8409C62.4697 18.8444 61.5152 18.8444 60.5144 18.8444Z" fill="var(--fill-0, #CFCFCF)"/>
<path id="Vector_3" d="M4.98627 13.1389C8.54428 11.5042 10.9697 8.95408 12.6793 5.68456C13.6729 3.7898 13.0853 2.24052 11.8993 1.59944C10.0508 0.602197 8.12046 0.595074 6.1331 1.30739C4.46628 1.90217 3.15562 2.96708 1.98387 4.21007C1.4247 4.80129 1.08279 5.59196 0.594854 6.36838C0.142534 6.3292 -0.224308 6.19387 0.160342 5.53141C1.40689 3.39447 3.07371 1.82025 5.43147 0.819453C7.23006 0.0572765 9.00729 -0.120802 10.8344 0.0715229C12.5226 0.249601 14.0897 0.904931 15.1261 2.36874C15.9203 3.48707 15.9559 4.68376 15.5606 6.01579C14.777 8.67272 12.7826 10.1686 10.6029 11.522C9.31358 12.3269 8.07772 13.3597 6.66377 13.7836C4.85449 14.3249 4.84025 15.4326 4.89011 16.8893C4.97203 19.3111 4.92573 21.7366 4.91148 24.162C4.91148 24.4256 4.81532 24.885 4.68354 24.9135C4.37368 24.9847 3.96054 24.9455 3.69342 24.7817C2.69618 24.1691 2.16551 23.3357 2.20112 22.0571C2.30441 18.5454 2.24386 15.0266 2.31509 11.5113C2.35427 9.59873 2.45756 7.67904 2.68906 5.78072C2.76741 5.12183 3.24466 4.46294 3.68274 3.91446C3.87862 3.67227 4.46984 3.56186 4.79039 3.66515C5.01833 3.73994 5.2249 4.2813 5.21777 4.60897C5.15367 7.02371 5.02545 9.43846 4.92929 11.8532C4.91504 12.2272 4.96134 12.6083 4.98627 13.1389Z" fill="var(--fill-0, #CFCFCF)"/>
<path id="Vector_4" d="M11.647 20.4468C12.7084 18.5449 13.7911 16.6573 14.8204 14.7376C15.0911 14.2318 15.1516 13.6192 15.3831 13.0886C15.4828 12.8642 15.7891 12.5757 15.9886 12.5828C16.2414 12.5935 16.5798 12.825 16.7151 13.0565C17.3028 14.0609 17.1105 15.1543 17.0286 16.2477C16.8754 18.2778 16.7971 20.315 16.7009 22.3522C16.6938 22.5054 16.7899 22.6656 16.8398 22.8224C16.9288 22.8615 17.0179 22.8971 17.1069 22.9363C17.7409 21.9106 18.4033 20.9027 19.0052 19.8556C19.3721 19.218 19.714 18.5485 19.9455 17.854C20.1627 17.1951 20.2553 16.4899 20.3373 15.7989C20.526 14.2283 20.6471 12.6469 20.8572 11.0798C20.9071 10.7023 21.2063 10.3604 21.3879 10.0078C22.6808 10.5278 23.1616 11.4111 22.955 12.6291C22.809 13.4946 22.7734 14.3779 22.6879 15.2504C22.7912 15.3074 22.8945 15.3644 23.0013 15.4214C23.4999 14.7732 24.0199 14.1392 24.4865 13.4697C25.1988 12.4439 26.2245 12.305 26.9262 13.1919C27.0615 13.3628 27.0864 13.6228 27.204 13.9647C26.0393 13.3557 25.8684 13.4234 25.181 14.3031C23.9558 15.8737 23.1794 17.6082 23.0298 19.6134C22.9443 20.7816 22.8019 21.9462 22.6238 23.1037C22.5739 23.4314 22.3068 23.727 22.143 24.0226C20.4441 23.3673 19.7496 22.1777 19.8636 20.3898C19.0622 21.6363 18.4425 22.7511 17.6696 23.7448C17.3028 24.2149 16.5762 24.8168 16.1346 24.7314C15.2478 24.5568 14.5639 23.7875 14.482 22.8188C14.3752 21.558 14.4357 20.2829 14.425 19.015C14.4215 18.6197 14.425 18.2279 14.425 17.5868C13.0182 19.4068 12.5054 21.5402 10.5892 22.6193C10.1369 22.3024 9.7024 22.0103 9.28214 21.7005C8.57338 21.1698 8.37037 20.4147 8.43804 19.5849C8.59119 17.7685 8.77283 15.9556 8.94023 14.1428C10.1298 14.2212 11.2481 15.311 11.2588 16.3332C11.2659 17.309 11.1911 18.2813 11.1733 19.2572C11.1662 19.6241 11.2339 19.9909 11.2659 20.3542C11.3977 20.3898 11.5224 20.4183 11.647 20.4468Z" fill="var(--fill-0, #CFCFCF)"/>
</g>
<defs>
<clipPath id="clip0_0_10">
<rect width="82.1833" height="25.102" fill="white"/>
</clipPath>
</defs>
</svg>
