<svg preserveAspectRatio="none" width="100%" height="100%" overflow="visible" style="display: block;" viewBox="0 0 45.8989 27.6246" fill="none" xmlns="http://www.w3.org/2000/svg">
<g id="Frame" clip-path="url(#clip0_0_28)">
<path id="Vector" d="M0 0.457517C0.517962 0.457517 0.934363 0.454132 1.35076 0.457517C5.0679 0.491371 8.79181 0.423663 12.5022 0.616629C13.9545 0.691108 15.5016 0.829908 16.8456 1.6424C17.411 1.98432 18.0779 2.15359 18.6568 2.47858C20.0685 3.26738 21.1992 4.35746 22.0049 5.77255C22.3299 6.34806 22.5635 6.3176 22.8885 5.70823C23.9684 3.67362 25.5866 2.18744 27.7025 1.26662C30.4243 0.0783553 33.3121 -0.0841425 36.2235 0.0309601C38.1768 0.105438 40.1234 0.308561 42.0734 0.457517C42.2427 0.471058 42.4086 0.504912 42.5744 0.538766C44.0911 0.823137 44.0911 0.823137 44.0911 2.37025C44.0911 4.11372 44.108 5.85718 44.0742 7.59727C44.0674 7.92226 43.9387 8.38606 43.7085 8.51809C43.4986 8.63996 43.0585 8.44699 42.7539 8.31158C41.4302 7.73268 40.1268 7.11316 38.7964 6.55119C38.6576 6.49363 38.3393 6.68999 38.2039 6.85248C38.1125 6.9642 38.1159 7.31628 38.2141 7.39753C38.732 7.83086 39.2432 8.31835 39.8458 8.59933C42.2867 9.74359 43.9929 11.6563 45.2387 13.9245C46.1562 15.5969 45.8481 17.5536 45.8718 19.4156C45.8989 21.5653 44.8765 23.2715 43.5325 24.7509C42.8859 25.4619 41.8669 25.9121 40.9359 26.2744C39.6156 26.7889 38.2378 27.2019 36.8498 27.4931C35.9289 27.6861 34.9438 27.6116 33.9891 27.6082C32.8347 27.6048 31.6634 27.6657 30.5293 27.4999C28.5048 27.2053 26.4973 26.7923 24.4898 26.3759C23.5825 26.1863 23.3895 25.4212 23.3861 24.6325C23.3692 22.3846 23.3794 20.1367 23.3794 17.8854C23.3794 16.8258 23.8432 16.5109 24.7911 17.012C26.196 17.7534 27.5468 18.5963 28.9619 19.314C29.3512 19.5104 29.8894 19.4461 30.3566 19.4393C30.4751 19.4393 30.7121 19.1448 30.6816 19.0737C30.5496 18.7554 30.4074 18.295 30.1501 18.1935C27.5095 17.1542 25.2955 15.5529 23.4437 13.2542C23.0984 14.3308 22.7057 15.2854 22.4924 16.2807C22.1708 17.7838 21.2026 18.8638 20.0786 19.6864C19.0156 20.4651 17.8274 21.1455 16.3717 21.2437C14.4758 21.3723 12.597 21.7278 10.7079 21.9479C10.19 22.0088 9.96315 22.1781 9.97669 22.7265C10.0072 23.9351 9.98685 25.1436 9.98346 26.3522C9.98008 26.8465 9.87851 27.229 9.23868 27.2256C6.25278 27.2087 3.2635 27.2155 0.2776 27.2087C0.199737 27.2087 0.121873 27.1613 0.00338537 27.1241C0 18.2815 0 9.43891 0 0.457517ZM9.98685 11.5649C9.98685 12.7159 9.93945 13.8704 10.0173 15.018C10.041 15.3396 10.4303 15.6375 10.6538 15.9456C10.8704 15.6985 11.1616 15.4818 11.2902 15.194C11.4561 14.8216 11.5644 14.3951 11.5712 13.9922C11.6017 12.3063 11.6186 10.6204 11.561 8.93787C11.5441 8.44361 11.3105 7.9358 11.0803 7.48216C11.0329 7.38737 10.4506 7.39753 10.3118 7.54648C10.1087 7.75976 10.0072 8.13554 9.997 8.45038C9.95976 9.4863 9.98346 10.5256 9.98685 11.5649Z" fill="var(--fill-0, #CFCFCF)"/>
</g>
<defs>
<clipPath id="clip0_0_28">
<rect width="45.8989" height="27.6246" fill="white"/>
</clipPath>
</defs>
</svg>
