<svg width="152.63" height="19.34" overflow="visible" style="display: block;" viewBox="0 0 152.626 19.3372" fill="none" xmlns="http://www.w3.org/2000/svg">
<g id="Frame" clip-path="url(#clip0_0_49)">
<path id="Vector" d="M87.6036 19.0587C86.2814 19.0587 85.0995 19.0587 83.8438 19.0587C83.8438 12.8243 83.8438 6.61942 83.8438 0.303758C84.9333 0.303758 85.9748 0.248358 87.0016 0.340692C87.2897 0.366546 87.6442 0.776509 87.7957 1.09414C89.1179 3.87155 90.3995 6.67113 91.6959 9.45962C91.8103 9.70708 91.9507 9.93976 92.1723 10.3534C92.6598 9.45962 93.1178 8.70248 93.5019 7.90471C94.6062 5.60374 95.6847 3.288 96.7632 0.972258C96.9737 0.517974 97.2396 0.240971 97.8084 0.277905C98.5434 0.325919 99.2857 0.325919 100.021 0.277905C100.711 0.233584 100.955 0.517974 100.944 1.17909C100.922 2.58995 100.94 4.00082 100.94 5.41169C100.94 9.33774 100.948 13.2638 100.933 17.1898C100.929 17.7956 100.844 18.405 100.793 19.055C99.5369 19.055 98.3513 19.055 97.0402 19.055C97.0402 16.056 97.0402 13.105 97.0402 10.154C96.9515 10.1281 96.8666 10.106 96.7779 10.0801C95.271 12.9572 93.7604 15.8381 92.1427 18.9294C90.6691 15.8824 89.273 12.9942 87.8769 10.106C87.7883 10.1281 87.6959 10.1503 87.6073 10.1687C87.6036 13.1197 87.6036 16.0671 87.6036 19.0587Z" fill="var(--fill-0, #CFCFCF)"/>
<path id="Vector_2" d="M17.1772 18.8396C15.8254 18.8396 14.6287 18.8691 13.4358 18.8137C13.1957 18.8027 12.8559 18.5293 12.7562 18.293C11.9252 16.3392 11.1311 14.3706 10.3407 12.402C10.1376 11.8924 9.82736 11.608 9.23273 11.6338C8.40542 11.6671 7.57071 11.6671 6.7434 11.6338C6.09706 11.608 5.88285 11.8739 5.89023 12.4981C5.91609 14.3078 5.87177 16.1176 5.9087 17.9236C5.92347 18.6401 5.69079 18.9024 4.95581 18.8544C4.014 18.7916 3.0685 18.8396 2.07498 18.8396C2.07129 12.5572 2.07129 6.37816 2.07129 0.106818C2.38153 0.0772714 2.677 0.0292576 2.96878 0.0292576C5.49135 0.0218709 8.01392 -0.0409164 10.5291 0.0440311C13.4136 0.143752 15.4967 1.26284 16.3055 3.83343C17.0959 6.34861 16.3535 8.52031 14.5106 10.3116C14.0526 10.7548 13.9898 11.0059 14.2483 11.6043C15.2603 13.9422 16.1689 16.317 17.1772 18.8396ZM8.42019 7.76317C8.42019 7.75948 8.42019 7.75209 8.42019 7.7484C9.03698 7.7484 9.65008 7.76317 10.2669 7.74101C10.5697 7.72993 10.8763 7.65606 11.1754 7.59697C12.1542 7.40491 12.7673 6.7992 12.7894 6.00513C12.819 4.94144 12.3204 4.26925 11.2235 4.07719C10.3851 3.92946 9.52451 3.82973 8.67134 3.83712C5.45442 3.86667 5.95302 3.27942 5.88654 6.68471C5.87177 7.45662 6.11922 7.84073 6.94284 7.77425C7.43406 7.72993 7.92897 7.76317 8.42019 7.76317Z" fill="var(--fill-0, #CFCFCF)"/>
<path id="Vector_3" d="M152.84 19.062C148.182 19.062 143.643 19.062 139.012 19.062C138.99 18.7591 138.949 18.4636 138.949 18.1719C138.945 12.5579 138.96 6.94401 138.931 1.33378C138.927 0.547096 139.115 0.273787 139.95 0.281174C143.824 0.325494 147.699 0.318108 151.577 0.284867C152.371 0.27748 152.651 0.510163 152.655 1.3227C152.674 4.04841 152.699 4.04841 149.985 4.04841C147.894 4.04841 145.8 4.07057 143.71 4.03733C143.056 4.02625 142.853 4.26263 142.853 4.8868C142.853 7.60512 142.809 7.0622 144.98 7.10652C145.778 7.12129 146.58 7.13976 147.377 7.10283C148.031 7.07328 148.212 7.36136 148.234 7.97446C148.345 10.907 148.36 10.907 145.39 10.907C142.857 10.907 142.857 10.907 142.857 13.4074C142.857 15.4388 142.761 15.2356 144.707 15.243C147.074 15.2504 149.446 15.2726 151.813 15.2282C152.626 15.2135 152.91 15.4757 152.851 16.2845C152.792 17.1894 152.84 18.1017 152.84 19.062Z" fill="var(--fill-0, #CFCFCF)"/>
<path id="Vector_4" d="M104.036 19.1065C104.014 18.704 103.984 18.4048 103.984 18.1056C103.98 12.525 103.999 6.94058 103.962 1.3599C103.958 0.510422 104.202 0.259273 105.048 0.274046C107.629 0.325753 110.215 0.274046 112.796 0.296206C115.903 0.32206 118.015 1.81787 118.839 4.50665C119.762 7.51305 117.694 11.1769 114.665 11.5868C112.822 11.838 110.942 11.8675 109.081 11.8786C108.18 11.886 107.91 12.1741 107.94 13.0457C107.995 14.7631 107.925 16.4806 107.969 18.198C107.988 18.9329 107.737 19.1619 107.016 19.1176C106.071 19.0659 105.118 19.1065 104.036 19.1065ZM110.776 4.00066C110.773 4.0302 110.769 4.06344 110.765 4.09299C110.089 4.09299 109.402 4.02651 108.741 4.12623C108.457 4.17055 108.028 4.53619 108.003 4.79104C107.91 5.67006 107.94 6.56755 107.984 7.45396C107.995 7.66448 108.25 8.0412 108.379 8.03751C110.244 7.97472 112.117 7.94517 113.964 7.71988C114.769 7.62016 115.26 6.815 115.219 6.00246C115.179 5.16407 114.662 4.4771 113.779 4.31829C112.796 4.1447 111.781 4.10038 110.776 4.00066Z" fill="var(--fill-0, #CFCFCF)"/>
<path id="Vector_5" d="M38.4596 19.1094C37.1522 19.1094 35.9888 19.1316 34.8254 19.0873C34.637 19.0799 34.3822 18.8177 34.2861 18.6108C33.7691 17.5434 33.3222 16.4391 32.7792 15.3865C32.6352 15.1132 32.2326 14.8067 31.9408 14.7993C30.0351 14.7476 28.1293 14.7328 26.2235 14.8067C25.8431 14.8214 25.326 15.2018 25.1413 15.5527C24.5467 16.6829 24.0814 17.8795 23.5495 19.0799C22.2642 19.0799 20.9789 19.0799 19.5459 19.0799C19.9559 18.0347 20.3252 17.0338 20.7389 16.0513C22.8515 11.0579 24.9788 6.06814 27.0878 1.07471C27.3167 0.531782 27.6418 0.324954 28.2586 0.280633C29.8282 0.158752 30.9067 0.324953 31.5198 2.19749C32.5466 5.33316 33.9833 8.33218 35.2649 11.3829C36.2067 13.6248 37.1817 15.8556 38.1346 18.0937C38.2565 18.3818 38.3267 18.6958 38.4596 19.1094ZM29.1671 6.5926C29.0711 6.60368 28.9751 6.61107 28.879 6.62215C28.3287 7.89636 27.7636 9.15949 27.254 10.4485C27.2059 10.5704 27.4903 10.9877 27.6344 10.9951C28.687 11.0431 29.7433 11.0209 31.0175 11.0209C30.3379 9.39217 29.7507 7.99239 29.1671 6.5926Z" fill="var(--fill-0, #CFCFCF)"/>
<path id="Vector_6" d="M73.7754 3.71782C72.852 4.47496 72.1244 5.02897 71.4485 5.63837C71.0164 6.02987 70.732 6.02248 70.2925 5.60883C69.0368 4.43434 67.5705 3.788 65.7903 4.02068C65.0036 4.12409 64.3388 4.41218 64.1283 5.21733C63.9362 5.956 64.4385 6.52109 65.421 6.83133C67.0497 7.34471 68.6859 7.84332 70.311 8.36408C73.7791 9.47578 74.4476 13.6899 72.9628 16.0574C71.7034 18.0629 69.8826 18.964 67.5742 19.1487C63.7663 19.4553 60.9261 17.7933 58.5771 14.857C59.4636 14.2218 60.3241 13.5607 61.2401 12.9808C61.4063 12.8737 61.8458 13.0399 62.0637 13.2024C62.8319 13.7786 63.5004 14.5025 64.3129 15.0011C65.698 15.8542 67.179 15.7102 68.6268 15.0786C69.4726 14.7093 69.997 14.0445 69.8789 13.1433C69.7644 12.2827 69.0442 11.8506 68.2353 11.6179C66.7949 11.208 65.3434 10.8349 63.9252 10.3696C61.6944 9.63829 60.2613 7.7399 60.2207 5.5682C60.1801 3.49991 61.6907 1.31713 63.8033 0.604313C66.4293 -0.282096 68.9444 0.0613874 71.2343 1.63107C72.0986 2.23678 72.8631 2.96807 73.7754 3.71782Z" fill="var(--fill-0, #CFCFCF)"/>
<path id="Vector_7" d="M54.7662 15.4019C54.7662 16.6613 54.7662 17.8136 54.7662 19.0435C54.4634 19.0657 54.2011 19.1063 53.9352 19.1063C49.8762 19.11 45.8172 19.0915 41.7619 19.1248C41.038 19.1322 40.7942 18.9179 40.7979 18.2014C40.8164 12.5617 40.8164 6.91819 40.7979 1.27472C40.7942 0.517581 41.0527 0.222112 41.8173 0.281206C42.4895 0.332913 43.1727 0.336606 43.8449 0.281206C44.6427 0.214725 44.8421 0.576675 44.8347 1.30058C44.8126 5.07151 44.8237 8.84243 44.8274 12.6134C44.8274 13.1969 44.8384 13.7768 44.8311 14.3603C44.8237 15.0399 45.1044 15.3391 45.832 15.3317C48.506 15.3021 51.18 15.3206 53.8576 15.3243C54.1199 15.328 54.3932 15.3686 54.7662 15.4019Z" fill="var(--fill-0, #CFCFCF)"/>
<path id="Vector_8" d="M135.791 15.3858C135.791 16.6563 135.791 17.8161 135.791 19.0423C131.193 19.0423 126.631 19.0423 122.004 19.0423C121.985 18.7135 121.952 18.4181 121.948 18.1189C121.945 12.5345 121.963 6.95387 121.93 1.36949C121.926 0.531098 122.155 0.198695 123.012 0.287336C123.621 0.350123 124.245 0.34643 124.855 0.287336C125.656 0.213469 125.848 0.575419 125.845 1.30301C125.823 5.04439 125.834 8.78947 125.834 12.5309C125.834 15.3304 125.834 15.3304 128.589 15.3304C130.587 15.3304 132.589 15.3267 134.587 15.3341C134.956 15.3341 135.318 15.3637 135.791 15.3858Z" fill="var(--fill-0, #CFCFCF)"/>
<path id="Vector_9" d="M80.568 19.1105C79.4378 19.1105 78.3372 19.1364 77.244 19.081C77.0704 19.0736 76.8045 18.7043 76.7786 18.479C76.7121 17.8733 76.7491 17.2565 76.7491 16.6434C76.7491 11.5834 76.7712 6.52722 76.7306 1.4673C76.7232 0.529189 77.0113 0.204172 77.942 0.285426C78.7915 0.359294 79.6484 0.3002 80.568 0.3002C80.568 6.60478 80.568 12.8096 80.568 19.1105Z" fill="var(--fill-0, #CFCFCF)"/>
</g>
<defs>
<clipPath id="clip0_0_49">
<rect width="152.626" height="19.3372" fill="white"/>
</clipPath>
</defs>
</svg>
