<svg preserveAspectRatio="none" width="100%" height="100%" overflow="visible" style="display: block;" viewBox="0 0 86.327 22.0997" fill="none" xmlns="http://www.w3.org/2000/svg">
<g id="Frame" clip-path="url(#clip0_0_44)">
<path id="Vector" d="M45.5252 21.5649C45.1786 21.5649 44.832 21.5649 44.4853 21.5649C40.9711 21.5649 37.4529 21.5649 33.9387 21.5649C32.0063 21.5649 31.8031 21.4255 31.0819 19.5927C30.9703 19.6763 30.8508 19.7281 30.7831 19.8237C28.9662 22.2144 25.699 22.2941 23.3761 21.4295C22.0732 20.9434 21.4198 19.7959 21.3003 18.4173C21.1528 16.6641 21.7027 15.1341 23.3642 14.401C24.9778 13.6838 26.719 13.2575 28.4084 12.7077C28.8467 12.5642 29.3248 12.5005 29.7352 12.3013C31.1735 11.6 31.6118 10.3728 31.1775 8.41649C30.9106 7.20922 29.8029 6.27289 28.4323 6.26493C27.3326 6.26094 26.2289 6.4243 25.1253 6.51196C25.1093 6.61953 25.0934 6.7311 25.0774 6.83868C25.2368 6.96618 25.3763 7.13352 25.5556 7.21321C26.982 7.87063 27.5238 9.29305 26.8385 10.6398C26.2767 11.7474 24.6431 12.1777 23.3642 11.5482C22.1688 10.9625 21.7505 9.37672 22.4597 8.11766C23.161 6.87453 24.3642 6.25696 25.6512 5.9661C28.0179 5.43219 30.3846 5.48399 32.6477 6.53188C34.2574 7.27696 35.2017 8.55594 35.3013 10.2812C35.4368 12.624 35.3651 14.9748 35.4089 17.3216C35.4249 18.1463 35.4886 18.9711 35.5962 19.7879C35.7317 20.8159 36.2616 21.1665 37.5167 21.1466C38.704 21.1266 39.2857 20.7003 39.3734 19.6723C39.4491 18.7838 39.4531 17.8873 39.457 16.9948C39.465 14.3492 39.477 11.7036 39.4411 9.05797C39.4172 7.3168 39.2698 7.1893 37.5485 6.9343C37.425 6.91438 37.3095 6.85461 37.174 6.63547C37.676 6.5518 38.1741 6.44821 38.6761 6.38047C39.9192 6.21313 41.1703 6.08164 42.4095 5.89438C43.1864 5.77883 43.5211 6.02985 43.4653 6.83868C43.4175 7.55188 43.4574 8.26907 43.557 9.00617C44.3977 7.70727 45.3699 6.65539 46.7843 6.0418C48.4299 5.3286 50.2029 5.78282 50.9719 7.08172C51.6652 8.25313 51.2349 9.44844 50.5615 10.1457C49.9439 10.7832 48.4259 10.9227 47.5812 10.4485C46.7006 9.95445 46.2902 8.85477 46.5532 7.67141C46.617 7.38852 46.7245 7.11758 46.864 6.66735C45.5651 7.12157 44.7403 7.92242 44.3578 8.99821C43.9235 10.2214 43.5928 11.5203 43.4852 12.8113C43.3378 14.5843 43.4414 16.3812 43.4494 18.1662C43.4653 20.3178 43.6526 20.5927 45.5252 21.5649ZM31.2652 12.118C30.3687 12.4845 29.6874 12.8033 28.9781 13.0503C25.8942 14.1301 25.3842 16.2139 26.1213 19.4094C26.2249 19.8556 26.7788 20.3178 27.237 20.5449C28.5598 21.1904 30.1974 20.3178 30.8269 18.6962C31.6556 16.5566 31.1177 14.3492 31.2652 12.118Z" fill="var(--fill-0, #CFCFCF)"/>
<path id="Vector_2" d="M80.138 8.15536C80.0224 6.22692 79.9706 4.29051 79.7276 2.37801C79.6837 2.02739 78.8749 1.72059 78.3689 1.50145C77.9983 1.33809 77.5481 1.35005 77.1337 1.2863C77.1377 1.17473 77.1417 1.06716 77.1457 0.955593C77.4804 0.927703 77.8151 0.911765 78.1458 0.867937C79.7794 0.652781 81.4209 0.473484 83.0465 0.194578C84.0108 0.0272344 83.9988 0.573094 83.9988 1.22255C83.9948 6.18309 83.9948 11.1476 83.9988 16.1082C83.9988 16.67 83.9948 17.2318 84.0028 17.7936C84.0227 19.3554 83.8872 21.0089 86.0388 21.4871C84.3455 21.4871 82.6282 21.6664 80.9707 21.4233C79.9069 21.2679 79.7594 20.0806 79.7953 18.7976C79.5005 19.2239 79.3132 19.4232 79.2056 19.6582C78.3609 21.5229 75.9225 22.1923 74.2371 21.6863C71.3285 20.8177 70.0495 19.2638 69.5555 16.1799C69.1251 13.5024 69.3881 10.9763 70.6432 8.59364C72.0855 5.86036 75.803 4.74075 78.1059 6.35043C78.7753 6.82059 79.2534 7.56965 79.8192 8.18723C79.9268 8.17926 80.0344 8.16731 80.138 8.15536ZM73.5677 13.8132C73.6315 13.8211 73.6992 13.8331 73.763 13.8411C73.763 14.2355 73.7151 14.6419 73.7709 15.0284C73.9741 16.3592 74.0976 17.7139 74.4722 18.9968C74.763 19.9889 75.4523 20.8177 76.6636 20.8416C77.7752 20.8655 78.3569 20.1563 78.8311 19.2598C79.9905 17.0804 80.2176 14.7256 80.0543 12.3429C79.9467 10.7452 79.7196 9.13551 78.7952 7.72903C77.8589 6.30262 76.0978 6.19504 75.0858 7.56965C74.7989 7.96012 74.516 8.41434 74.4204 8.87653C74.0976 10.5101 73.8466 12.1636 73.5677 13.8132Z" fill="var(--fill-0, #CFCFCF)"/>
<path id="Vector_3" d="M11.4073 21.4974C7.61812 21.4974 3.825 21.4974 0.0358594 21.4974C0.0239062 21.4177 0.0119531 21.342 0 21.2623C0.31875 21.2185 0.6375 21.1548 0.95625 21.1309C2.80898 20.9914 3.60187 20.3101 3.61781 18.5052C3.66961 13.6442 3.66562 8.78329 3.61383 3.92235C3.59789 2.12939 2.96437 1.60345 1.18336 1.49985C0.820781 1.47993 0.462187 1.39626 0.0916406 1.11337C0.247031 1.04165 0.406406 0.910167 0.561797 0.914151C4.90078 0.981885 9.24773 0.977901 13.5787 1.20103C14.8777 1.26876 16.2084 1.83454 17.4037 2.42024C19.4437 3.42431 20.2605 5.2372 20.1809 7.46845C20.0972 9.84313 18.9337 11.4767 16.7822 12.4649C14.6107 13.4609 12.2838 13.4609 9.97289 13.5645C9.57445 13.5805 9.17601 13.5884 8.77758 13.5685C8.01656 13.5247 7.71375 13.8315 7.75758 14.6244C7.82133 15.7798 7.76156 16.9393 7.7775 18.0948C7.80539 20.1188 8.51859 20.8878 10.5347 21.1109C10.8335 21.1428 11.1323 21.1906 11.4312 21.2305C11.4272 21.3181 11.4152 21.4098 11.4073 21.4974ZM7.7775 13.0227C8.53851 13.0227 9.1282 13.0266 9.72187 13.0227C12.9213 12.9948 15.1087 11.7238 15.7343 8.25735C16.1168 6.1536 15.7941 4.13751 14.0489 2.67923C12.3396 1.24884 10.2199 1.44407 8.17594 1.53571C8.02851 1.54368 7.79742 2.08157 7.79343 2.37642C7.76554 5.08181 7.7775 7.79118 7.7775 10.5006C7.7775 11.2895 7.7775 12.0744 7.7775 13.0227Z" fill="var(--fill-0, #CFCFCF)"/>
<path id="Vector_4" d="M68.2486 21.536C66.6429 21.536 65.0292 21.6277 63.4315 21.5041C62.4234 21.4245 62.2003 20.4562 62.0011 19.5598C61.8616 19.6275 61.7022 19.6474 61.6425 19.7391C60.0089 22.1934 56.4309 22.309 54.1917 21.4364C52.829 20.9065 52.2115 19.7311 52.1597 18.3007C52.1079 16.8982 52.3031 15.4638 53.6498 14.7546C55.0563 14.0175 56.6182 13.5673 58.1203 13.0095C59.0128 12.6788 59.9611 12.4795 60.8097 12.0652C62.28 11.344 62.2601 10.4634 62.0369 8.6625C61.8776 7.39547 60.8576 6.46313 59.6941 6.28383C58.4829 6.09657 57.1601 6.27188 55.8532 6.81774C56.0126 6.96118 56.1281 7.12055 56.2835 7.19227C57.439 7.72618 58.0844 8.62664 57.9768 9.59883C57.8493 10.7105 57.1361 11.5432 56.1042 11.7703C54.9726 12.0213 53.7972 11.599 53.3072 10.7702C52.7175 9.77414 52.833 8.55094 53.606 7.64649C54.5583 6.53086 55.8412 6.05672 57.2318 5.82563C59.3993 5.46305 61.507 5.6304 63.5271 6.57469C65.3479 7.42336 66.1448 8.96532 66.2245 10.83C66.3361 13.3043 66.2484 15.7905 66.2604 18.2688C66.2763 20.4682 66.356 20.5758 68.2486 21.536ZM62.1485 12.0811C60.9572 12.5831 59.9292 12.9855 58.9211 13.4438C57.7856 13.9617 56.9369 14.7905 56.7656 16.0575C56.6461 16.9659 56.666 17.9063 56.7457 18.8227C56.8732 20.273 58.4032 21.2212 59.718 20.5837C60.4073 20.2491 61.0926 19.6315 61.4632 18.9661C62.6585 16.8185 61.9293 14.4478 62.1485 12.0811Z" fill="var(--fill-0, #CFCFCF)"/>
</g>
<defs>
<clipPath id="clip0_0_44">
<rect width="86.327" height="22.0997" fill="white"/>
</clipPath>
</defs>
</svg>
