<svg preserveAspectRatio="none" width="100%" height="100%" overflow="visible" style="display: block;" viewBox="0 0 116.714 23.0735" fill="none" xmlns="http://www.w3.org/2000/svg">
<g id="Frame" clip-path="url(#clip0_0_81)">
<path id="Vector" d="M50.6826 0.493962C50.6826 7.84975 50.6826 15.186 50.6826 22.5604C49.4538 22.5604 48.2224 22.5604 46.9324 22.5604C46.9324 17.2017 46.9324 11.8235 46.9324 6.4462C46.9022 6.44442 46.8712 6.44176 46.841 6.43999C45.8749 11.8058 44.9096 17.1707 43.9381 22.5667C43.1174 22.5667 42.3003 22.5667 41.4513 22.5667C40.51 17.1725 39.5686 11.7863 38.6273 6.39918C38.6078 6.39918 38.5874 6.39918 38.5679 6.39918C38.5679 11.7792 38.5679 17.1592 38.5679 22.5684C37.4864 22.5684 36.4599 22.5684 35.3926 22.5684C35.3926 15.2215 35.3926 7.87548 35.3926 0.495736C37.2424 0.495736 39.0975 0.495736 41.013 0.495736C41.6864 4.37813 42.3633 8.28359 43.0403 12.1891C43.0695 12.1935 43.0988 12.1988 43.1281 12.2033C43.813 8.30932 44.497 4.41539 45.1864 0.492188C47.0149 0.493962 48.8381 0.493962 50.6826 0.493962Z" fill="var(--fill-0, #CFCFCF)"/>
<path id="Vector_2" d="M23.9207 11.5862C23.926 13.916 23.8603 16.1278 23.281 18.2837C22.8889 19.7423 22.2687 21.0828 21.063 22.0747C20.4047 22.6159 19.6364 22.906 18.8042 23.0063C16.6545 23.2653 14.7213 22.7987 13.512 20.5895C12.7109 19.1266 12.2504 17.5518 12.0508 15.898C11.7616 13.4981 11.8157 11.0912 11.9834 8.69128C12.1147 6.81042 12.3551 4.9331 13.1358 3.18442C14.5935 -0.0795935 18.845 -1.05019 21.4321 1.28847C22.4967 2.25109 22.9572 3.54995 23.2837 4.89051C23.8284 7.12626 23.9446 9.40814 23.9207 11.5862ZM16.2206 11.1187C16.3049 13.2284 16.359 15.19 16.4779 17.1481C16.5134 17.7399 16.69 18.3334 16.8763 18.9021C17.0165 19.3306 17.3669 19.6136 17.8513 19.6083C18.3082 19.603 18.6276 19.3475 18.8122 18.9402C18.9142 18.714 19.0277 18.478 19.0561 18.2367C19.1972 17.0239 19.3995 15.8102 19.419 14.5938C19.4651 11.7619 19.4492 8.92728 19.3888 6.09622C19.3746 5.42372 19.1227 4.7459 18.9133 4.09292C18.7802 3.67859 18.428 3.40445 17.9702 3.40445C17.5053 3.40445 17.1442 3.65641 16.9641 4.08138C16.8168 4.42917 16.6758 4.80268 16.6456 5.17353C16.4815 7.1999 16.3519 9.2307 16.2206 11.1187Z" fill="var(--fill-0, #CFCFCF)"/>
<path id="Vector_3" d="M51.1816 11.398C51.2446 8.9866 51.3573 6.59027 52.0653 4.26403C52.4636 2.9554 53.0811 1.80204 54.1972 0.936133C56.0799 -0.525088 60.3509 -0.359181 61.805 2.61649C62.5627 4.16821 62.9885 5.79534 63.1065 7.48989C63.2396 9.40181 63.3079 11.3226 63.2884 13.2381C63.2644 15.5271 63.032 17.8018 62.0472 19.9205C61.3756 21.3666 60.4236 22.5067 58.7663 22.8899C55.922 23.5474 53.7093 22.4676 52.5222 19.8087C51.9038 18.4238 51.5729 16.9634 51.4496 15.4587C51.3387 14.1066 51.2695 12.751 51.1816 11.398ZM59.0618 11.3403C59.005 11.3386 58.9482 11.3377 58.8914 11.3359C58.8914 9.88977 58.9331 8.44186 58.8755 6.9975C58.8417 6.1653 58.7016 5.32689 58.509 4.5151C58.328 3.753 57.8782 3.42828 57.2927 3.44603C56.7142 3.46377 56.3088 3.83994 56.1313 4.58786C56.0133 5.08824 55.9051 5.59749 55.867 6.10852C55.6114 9.57127 55.5822 13.0393 55.7907 16.5048C55.8386 17.3023 56.0586 18.0955 56.2635 18.8736C56.3798 19.3127 56.7382 19.5896 57.2155 19.6153C57.691 19.641 58.069 19.4032 58.2447 18.9836C58.4523 18.4876 58.6625 17.9598 58.7033 17.4328C58.8604 15.4055 58.9482 13.372 59.0618 11.3403Z" fill="var(--fill-0, #CFCFCF)"/>
<path id="Vector_4" d="M11.0638 8.38507C9.88295 8.38507 8.73669 8.38507 7.56469 8.38507C7.52299 7.71523 7.51146 7.05427 7.43161 6.40129C7.3491 5.71726 7.24885 5.02879 7.06875 4.36605C6.88864 3.70153 6.47876 3.42029 5.93756 3.43271C5.32717 3.44691 4.90486 3.74589 4.76202 4.42993C4.59079 5.24881 4.43819 6.08633 4.41779 6.91853C4.35036 9.67861 4.3131 12.4405 4.3335 15.2014C4.34149 16.2111 4.52957 17.2216 4.66532 18.2286C4.70169 18.4983 4.8259 18.7636 4.94833 19.0129C5.15771 19.4396 5.50461 19.704 5.99257 19.7155C6.4965 19.7279 6.91881 19.4999 7.09093 19.0395C7.31982 18.4264 7.50614 17.785 7.60462 17.1391C7.73681 16.2696 7.76875 15.3851 7.84505 14.4952C8.98422 14.4952 10.1172 14.4952 11.3042 14.4952C11.2776 14.985 11.2865 15.4543 11.2191 15.913C11.0407 17.1329 10.9361 18.3785 10.6087 19.5594C10.0107 21.7162 8.4306 22.9503 6.38383 23.055C3.8278 23.1854 2.07025 22.174 1.1449 20.0296C0.578865 18.7183 0.270118 17.3307 0.182285 15.921C0.0518667 13.8316 -0.0235454 11.7343 0.00661947 9.64135C0.0385587 7.48367 0.370372 5.35616 1.24781 3.35286C1.8724 1.92535 2.75872 0.727632 4.34859 0.295565C6.31196 -0.23853 8.1396 -0.0326995 9.59017 1.55805C10.2937 2.32903 10.6034 3.29963 10.8065 4.31193C11.0771 5.6516 11.0736 7.00281 11.0638 8.38507Z" fill="var(--fill-0, #CFCFCF)"/>
<path id="Vector_5" d="M24.2353 16.3639C25.52 16.3639 26.6822 16.3639 27.8329 16.3639C27.9163 17.0249 27.958 17.6717 28.0876 18.3007C28.2969 19.3201 28.9277 19.8453 29.8034 19.8098C30.6995 19.7735 31.3427 19.1143 31.4944 18.1233C31.6514 17.0941 31.4305 16.1572 30.703 15.4262C29.7457 14.4662 28.7379 13.5524 27.7105 12.667C26.4143 11.5509 25.1571 10.3984 24.5254 8.76595C23.6995 6.63134 23.8361 4.5127 24.914 2.49254C25.7782 0.872512 27.25 0.163637 29.0173 0.0633835C29.6827 0.0252338 30.3774 0.115728 31.0277 0.27365C32.1962 0.556668 33.0222 1.3241 33.5829 2.37277C34.3051 3.7222 34.5073 5.18076 34.4843 6.72006C33.362 6.72006 32.2601 6.72006 31.1351 6.72006C31.073 6.06885 31.057 5.39281 30.9355 4.73539C30.7288 3.6113 29.8726 3.07543 28.8763 3.38329C28.2455 3.57759 27.8019 4.24477 27.7185 5.01841C27.573 6.36873 28.1736 7.39788 29.1105 8.26113C30.098 9.1714 31.1395 10.024 32.1438 10.9165C33.4338 12.0619 34.5002 13.3758 34.927 15.0837C35.4496 17.1731 35.1364 19.1524 33.9333 20.9561C33.0204 22.3251 31.6559 22.9257 30.0696 23.0517C28.8097 23.1519 27.5827 22.9656 26.5216 22.2213C25.3461 21.3962 24.7437 20.1878 24.49 18.8153C24.3445 18.0248 24.3196 17.213 24.2353 16.3639Z" fill="var(--fill-0, #CFCFCF)"/>
<path id="Vector_6" d="M73.8612 6.55785C72.6209 6.55785 71.5394 6.55785 70.4392 6.55785C70.3709 5.9235 70.3425 5.2998 70.2308 4.69029C70.0418 3.66823 69.4314 3.20778 68.4572 3.27964C67.6934 3.33642 67.1451 3.99739 67.0643 4.92096C66.9632 6.06634 67.3367 7.02541 68.1787 7.79372C69.293 8.81046 70.4401 9.7917 71.5438 10.82C72.6617 11.8615 73.5533 13.0672 73.9721 14.5648C74.4592 16.3055 74.3208 18.0169 73.611 19.6663C73.1186 20.8107 72.2571 21.6137 71.0869 22.0688C69.7987 22.5701 68.4697 22.5967 67.1504 22.2879C64.9368 21.7698 63.8722 20.2536 63.5262 18.1536C63.4117 17.4616 63.4188 16.7491 63.3656 15.9684C64.0168 15.9684 64.6077 15.9684 65.1985 15.9684C65.7947 15.9684 66.3918 15.9684 67.0155 15.9684C67.0643 16.5025 67.1078 17.0126 67.1593 17.5219C67.1735 17.6612 67.2072 17.7987 67.2427 17.9344C67.539 19.0452 68.1006 19.4746 69.1084 19.3646C69.9752 19.2697 70.5555 18.5581 70.5901 17.529C70.6282 16.3676 70.1278 15.4201 69.3249 14.6411C68.2416 13.5916 67.1176 12.5837 66.0041 11.5652C64.6999 10.3719 63.6548 9.0012 63.3842 7.21615C63.0542 5.03985 63.3053 2.96468 64.9901 1.33312C66.7742 -0.395151 70.3381 -0.444834 72.0965 1.19471C72.8879 1.93287 73.2765 2.89016 73.4841 3.91576C73.6536 4.76748 73.7325 5.63871 73.8612 6.55785Z" fill="var(--fill-0, #CFCFCF)"/>
<path id="Vector_7" d="M107.636 0.375C110.602 0.375 113.556 0.375 116.544 0.375C116.544 1.50796 116.544 2.64624 116.544 3.83686C114.955 3.83686 113.374 3.83686 111.766 3.83686C111.766 5.69023 111.766 7.49125 111.766 9.34461C112.937 9.34461 114.109 9.34461 115.322 9.34461C115.322 10.5166 115.322 11.6371 115.322 12.8065C114.146 12.8065 112.973 12.8065 111.769 12.8065C111.769 14.7814 111.769 16.7084 111.769 18.6931C113.402 18.6931 115.043 18.6931 116.714 18.6931C116.714 19.873 116.714 20.9945 116.714 22.1416C113.686 22.1416 110.674 22.1416 107.636 22.1416C107.636 14.8808 107.636 7.63941 107.636 0.375Z" fill="var(--fill-0, #CFCFCF)"/>
<path id="Vector_8" d="M89.2285 0.389023C89.9729 3.08789 90.7137 5.76901 91.4918 8.59032C92.2769 5.77256 93.0248 3.08789 93.7781 0.382812C94.9971 0.382812 96.2019 0.382812 97.4422 0.382812C96.9977 1.78459 96.5621 3.16774 96.1212 4.54911C95.2083 7.41122 94.2891 10.2725 93.3859 13.1372C93.2892 13.4451 93.2351 13.7787 93.2333 14.1007C93.2209 16.6 93.2254 19.1001 93.2254 21.5994C93.2254 21.7697 93.2254 21.94 93.2254 22.1405C91.8307 22.1405 90.4688 22.1405 89.0378 22.1405C89.0378 21.9809 89.0378 21.8141 89.0378 21.6482C89.0378 19.1959 89.0608 16.7428 89.0227 14.2915C89.0138 13.6944 88.8523 13.0867 88.6784 12.5082C87.494 8.56636 86.2874 4.63073 85.0888 0.692446C85.0622 0.604613 85.048 0.513231 85.0205 0.389023C86.4241 0.389023 87.801 0.389023 89.2285 0.389023Z" fill="var(--fill-0, #CFCFCF)"/>
<path id="Vector_9" d="M77.3749 3.84982C76.2978 3.84982 75.2678 3.84982 74.2129 3.84982C74.2129 2.67073 74.2129 1.54665 74.2129 0.390625C77.6978 0.390625 81.1801 0.390625 84.6943 0.390625C84.6943 1.54133 84.6943 2.66452 84.6943 3.83208C83.6518 3.83208 82.6182 3.83208 81.5385 3.83208C81.5385 9.95022 81.5385 16.0258 81.5385 22.1386C80.135 22.1386 78.7793 22.1386 77.3749 22.1386C77.3749 16.0533 77.3749 9.97861 77.3749 3.84982Z" fill="var(--fill-0, #CFCFCF)"/>
<path id="Vector_10" d="M102.302 18.7105C103.81 18.7105 105.236 18.7105 106.697 18.7105C106.697 19.8683 106.697 20.9897 106.697 22.1422C103.86 22.1422 101.022 22.1422 98.1602 22.1422C98.1602 14.899 98.1602 7.66124 98.1602 0.390625C99.5247 0.390625 100.887 0.390625 102.301 0.390625C102.302 6.46175 102.302 12.5497 102.302 18.7105Z" fill="var(--fill-0, #CFCFCF)"/>
</g>
<defs>
<clipPath id="clip0_0_81">
<rect width="116.714" height="23.0735" fill="white"/>
</clipPath>
</defs>
</svg>
