<svg width="76.66" height="22.98" overflow="visible" style="display: block;" viewBox="0 0 76.6583 22.9785" fill="none" xmlns="http://www.w3.org/2000/svg">
<g id="Frame" clip-path="url(#clip0_0_72)">
<path id="Vector" d="M50.67 7.73621C49.9353 9.49323 49.2626 11.1529 48.55 12.7948C47.1338 16.0566 45.6954 19.3095 44.2792 22.5713C44.1464 22.8723 43.9915 22.9873 43.6507 22.9829C42.5886 22.9608 42.593 22.9785 42.1814 21.9783C40.2695 17.3401 38.3576 12.6975 36.4456 8.05929C36.4191 8.00175 36.3792 7.94864 36.2642 7.75391C35.3835 12.6399 34.5293 17.3976 33.6574 22.2217C34.3346 22.3013 34.901 22.3677 35.4675 22.4341C35.4941 22.4784 35.5162 22.5226 35.5428 22.5669C35.4233 22.6465 35.3038 22.7926 35.1843 22.797C33.4804 22.8147 31.7765 22.8147 30.0726 22.8192C29.7716 22.8192 29.7716 22.8192 29.7539 22.412C30.3912 22.3412 31.0329 22.2659 31.8075 22.1774C33.1352 14.8174 34.4629 7.44854 35.7995 0.0177072C35.7287 0.0531131 35.7464 0.0398359 35.7596 0.0398359C36.9723 -0.0442533 36.9679 -0.0442533 37.375 1.10201C39.4197 6.86876 41.7344 12.5249 44.2217 18.1102C44.2305 18.1323 44.2704 18.1456 44.3412 18.1942C44.9962 16.6851 45.691 15.198 46.2929 13.68C48.0101 9.34275 49.7052 4.99225 51.3737 0.637312C51.5551 0.163757 51.7454 -0.048679 52.2455 0.0265587C52.458 0.0575389 52.6793 0.0309844 52.9492 0.0309844C53.0422 0.624034 53.1263 1.21266 53.2236 1.79686C53.6795 4.65589 54.1088 7.51492 54.6045 10.3695C55.1134 13.2861 55.6888 16.1894 56.2376 19.0971C56.4102 20.0132 56.5961 20.9249 56.7687 21.8366C56.8218 22.1243 56.9722 22.2615 57.2643 22.2792C57.645 22.3013 58.03 22.35 58.4106 22.3854C58.7381 22.4164 58.7381 22.4208 58.6983 22.7837C56.2287 22.7837 53.7636 22.7837 51.2453 22.7837C51.2409 22.6997 51.2321 22.5669 51.2232 22.4297C51.9048 22.3367 52.5465 22.2482 53.2767 22.1509C52.4137 17.3711 51.5551 12.6178 50.67 7.73621Z" fill="var(--fill-0, #CFCFCF)"/>
<path id="Vector_2" d="M61.6552 0.712855C61.04 0.668598 60.4912 0.606637 59.9424 0.597786C59.606 0.59336 59.4821 0.473865 59.5485 0.164062C65.1559 0.164062 70.7633 0.164062 76.446 0.164062C76.446 1.62456 76.446 3.01424 76.446 4.5544C76.0964 4.05429 76.1805 3.59402 76.1229 3.17357C76.0654 2.72657 76.0433 2.27957 75.9946 1.74405C72.3655 1.74405 68.7496 1.74405 65.1028 1.74405C65.1028 4.73143 65.1028 7.74979 65.1028 10.7681C68.1831 10.7681 71.2546 10.7681 74.2862 10.7681C74.7288 10.1485 74.3615 9.32536 74.8439 8.78984C74.8837 8.80312 74.928 8.82082 74.9678 8.8341C74.9678 10.6531 74.9678 12.4676 74.9678 14.2866C74.9324 14.3176 74.8926 14.3442 74.8572 14.3751C74.7731 14.2468 74.6403 14.1273 74.6182 13.9901C74.5297 13.4502 74.481 12.9102 74.4057 12.3039C71.29 12.3039 68.2185 12.3039 65.1072 12.3039C65.1072 15.3709 65.1072 18.3849 65.1072 21.4076C68.7983 21.4076 72.4805 21.4076 76.2026 21.4076C76.3044 20.3897 76.4017 19.4647 76.4947 18.5398C76.5478 18.5442 76.6009 18.5486 76.6584 18.553C76.6584 19.9648 76.6584 21.3767 76.6584 22.8106C71.0466 22.8106 65.4259 22.8106 59.6105 22.8106C59.8185 22.6203 59.9247 22.4388 60.053 22.4167C60.562 22.3415 61.0798 22.3149 61.6507 22.2662C61.6552 15.0833 61.6552 7.91797 61.6552 0.712855Z" fill="var(--fill-0, #CFCFCF)"/>
<path id="Vector_3" d="M11.8883 1.57457C11.8883 8.51414 11.8883 15.3652 11.8883 22.2605C12.592 22.3136 13.2735 22.349 13.9462 22.4243C14.0834 22.4375 14.2029 22.6057 14.2383 22.7827C11.6891 22.7827 9.1443 22.7827 6.43132 22.7827C6.6172 22.6234 6.72342 22.4597 6.86061 22.4287C7.374 22.318 7.90067 22.2517 8.46273 22.1631C8.46273 15.3032 8.46273 8.48316 8.46273 1.70734C5.74533 1.70734 3.06775 1.70734 0.319362 1.70734C0.319362 2.52168 0.328213 3.22094 0.314936 3.92021C0.31051 4.04413 0.226421 4.16805 0.182164 4.29197C0.120203 4.16805 0.00955961 4.03971 0.00955961 3.91136C-0.00371763 2.6633 0.000708119 1.41081 0.000708119 0.140625C6.70129 0.140625 13.362 0.140625 20.0184 0.140625C20.0184 1.53474 20.0184 2.90229 20.0184 4.26985C19.952 4.28755 19.8856 4.30525 19.8192 4.32295C19.7661 4.19903 19.6687 4.07954 19.6687 3.95562C19.6554 3.17226 19.6599 2.38448 19.6599 1.57014C17.0177 1.57457 14.4729 1.57457 11.8883 1.57457Z" fill="var(--fill-0, #CFCFCF)"/>
<path id="Vector_4" d="M21.2348 22.8382C21.1419 22.5195 21.2127 22.3823 21.5446 22.3646C22.0094 22.3337 22.4696 22.254 22.9255 22.1566C23.0361 22.1345 23.1291 21.9619 23.1999 21.8424C23.2353 21.7804 23.2087 21.6787 23.2087 21.5946C23.1999 14.8364 23.191 8.07834 23.1822 1.32022C23.1822 1.12549 23.1822 0.92633 23.1822 0.713894C22.5139 0.656359 21.8987 0.60325 21.2393 0.550141C21.226 0.421795 21.2171 0.289022 21.2039 0.15625C23.6557 0.15625 26.0678 0.15625 28.5019 0.15625C28.6081 0.443923 28.5152 0.581122 28.1656 0.594399C27.6345 0.616528 27.1078 0.674062 26.5502 0.71832C26.5502 7.85705 26.5502 14.9781 26.5502 22.1655C27.2008 22.2496 27.8381 22.3292 28.4886 22.4133C28.5904 22.7143 28.4975 22.8249 28.17 22.8072C27.068 22.7541 25.966 22.6789 24.864 22.6877C23.6602 22.6921 22.4608 22.7851 21.2348 22.8382Z" fill="var(--fill-0, #CFCFCF)"/>
</g>
<defs>
<clipPath id="clip0_0_72">
<rect width="76.6583" height="22.9785" fill="white"/>
</clipPath>
</defs>
</svg>
