<svg preserveAspectRatio="none" width="100%" height="100%" overflow="visible" style="display: block;" viewBox="0 0 18.965 18.3242" fill="none" xmlns="http://www.w3.org/2000/svg">
<g id="Group 2087326332">
<path id="Vector 13048" d="M5.63867 7.5H13.1349" stroke="var(--stroke-0, #3F3F3F)" stroke-width="1.66584" stroke-linecap="round"/>
<path id="Vector 13049" d="M5.63867 9.99219H10.6362" stroke="var(--stroke-0, #3F3F3F)" stroke-width="1.66584" stroke-linecap="round"/>
<path id="Ellipse 1568" d="M9.80273 0.833008C14.4028 0.833008 18.1318 4.56202 18.1318 9.16211C18.1318 13.7622 14.4028 17.4912 9.80273 17.4912C8.73281 17.4912 7.7119 17.2899 6.77441 16.9238C6.25108 16.7195 5.57376 16.7458 5.00977 16.7979C4.40831 16.8534 3.71358 16.9662 3.09473 17.0547C2.44823 17.1471 1.87287 17.215 1.41504 17.209C1.18804 17.206 1.02426 17.1849 0.914062 17.1553C0.879636 17.146 0.856314 17.1348 0.839844 17.1279C0.831775 17.0787 0.822327 16.9611 0.859375 16.7285C0.921479 16.3386 1.07697 15.8506 1.27441 15.2803C1.46122 14.7407 1.68794 14.1217 1.83301 13.5693C1.96739 13.0576 2.09713 12.3876 1.9043 11.8125C1.62543 10.981 1.47363 10.0901 1.47363 9.16211C1.47363 4.56208 5.20273 0.833102 9.80273 0.833008Z" stroke="var(--stroke-0, #3F3F3F)" stroke-width="1.66584"/>
</g>
</svg>
