<svg preserveAspectRatio="none" width="100%" height="100%" overflow="visible" style="display: block;" viewBox="0 0 31 31" fill="none" xmlns="http://www.w3.org/2000/svg">
<g id="icon">
<path id="Vector" d="M15.5109 6.95169C15.5652 6.19989 15.8135 5.47501 16.2315 4.84781C16.6496 4.22061 17.2231 3.71252 17.8961 3.37314C18.5692 3.03376 19.3187 2.87468 20.0715 2.91144C20.8244 2.9482 21.5549 3.17953 22.1916 3.58286C22.2644 3.6305 22.3231 3.69686 22.3614 3.77498C22.3997 3.8531 22.4162 3.94009 22.4093 4.02682C22.4023 4.11354 22.3722 4.19679 22.3219 4.26783C22.2717 4.33887 22.2033 4.39507 22.1238 4.43052C21.0169 4.92854 20.0773 5.73554 19.4178 6.75459C18.7583 7.77364 18.4071 8.9614 18.4062 10.1752C18.4063 10.3169 18.4062 10.4586 18.4208 10.5978C18.4275 10.6858 18.41 10.774 18.3702 10.8528C18.3304 10.9316 18.2698 10.998 18.195 11.0449C18.1202 11.0918 18.034 11.1173 17.9458 11.1188C17.8575 11.1202 17.7705 11.0975 17.6942 11.0531C16.9806 10.6449 16.3969 10.0433 16.0106 9.31754C15.6243 8.59182 15.451 7.77165 15.5109 6.95169ZM29.0625 19.4522C29.0642 20.0058 28.9109 20.5487 28.6198 21.0196C28.3287 21.4905 27.9116 21.8704 27.4156 22.1163L27.3623 22.1405L22.6603 24.1434C22.6138 24.1638 22.5656 24.18 22.5162 24.1918L14.7662 26.1293C14.6894 26.149 14.6105 26.1591 14.5312 26.1596H1.9375C1.42364 26.1596 0.930832 25.9555 0.567481 25.5921C0.204129 25.2288 0 24.7359 0 24.2221V19.3783C0 18.8645 0.204129 18.3717 0.567481 18.0083C0.930832 17.645 1.42364 17.4408 1.9375 17.4408H5.41168L8.15082 14.7005C8.50999 14.3397 8.93709 14.0537 9.40745 13.8589C9.87781 13.6642 10.3821 13.5646 10.8912 13.5658H16.9531C17.4648 13.5658 17.9699 13.6815 18.4305 13.9045C18.8911 14.1274 19.2953 14.4516 19.6128 14.853C19.9302 15.2543 20.1527 15.7223 20.2636 16.2218C20.3744 16.7214 20.3708 17.2396 20.2529 17.7375L25.3195 16.5726C25.7606 16.4558 26.2226 16.4418 26.6699 16.5318C27.1172 16.6217 27.5379 16.8132 27.8995 17.0914C28.2612 17.3696 28.5541 17.7272 28.7557 18.1365C28.9574 18.5458 29.0623 18.9959 29.0625 19.4522ZM27.125 19.4522C27.1248 19.292 27.0878 19.134 27.0167 18.9905C26.9456 18.847 26.8424 18.7217 26.7151 18.6245C26.5878 18.5273 26.4398 18.4607 26.2826 18.43C26.1254 18.3992 25.9633 18.4051 25.8087 18.4471L25.7712 18.4568L17.6579 20.3229C17.5867 20.3388 17.514 20.3469 17.4411 20.3471H13.5625C13.3056 20.3471 13.0592 20.245 12.8775 20.0633C12.6958 19.8817 12.5938 19.6353 12.5938 19.3783C12.5938 19.1214 12.6958 18.875 12.8775 18.6933C13.0592 18.5116 13.3056 18.4096 13.5625 18.4096H16.9531C17.3385 18.4096 17.7081 18.2565 17.9806 17.984C18.2532 17.7115 18.4062 17.3419 18.4062 16.9565C18.4062 16.5711 18.2532 16.2015 17.9806 15.9289C17.7081 15.6564 17.3385 15.5033 16.9531 15.5033H10.8912C10.6366 15.5025 10.3845 15.5523 10.1494 15.6498C9.91425 15.7473 9.70086 15.8906 9.5216 16.0713L6.78125 18.8104V24.2221H14.4102L21.97 22.3318L26.5716 20.3725C26.7391 20.2843 26.8792 20.1518 26.9768 19.9896C27.0743 19.8274 27.1256 19.6415 27.125 19.4522ZM20.3438 10.1752C20.3437 11.0374 20.5994 11.8803 21.0784 12.5971C21.5575 13.314 22.2383 13.8728 23.0349 14.2027C23.8314 14.5327 24.708 14.619 25.5536 14.4508C26.3992 14.2826 27.176 13.8674 27.7857 13.2578C28.3953 12.6481 28.8105 11.8713 28.9787 11.0257C29.1469 10.18 29.0606 9.30352 28.7307 8.50695C28.4007 7.71038 27.842 7.02953 27.1251 6.55052C26.4082 6.07151 25.5653 5.81583 24.7031 5.81583C23.5469 5.81583 22.4381 6.27512 21.6206 7.09267C20.803 7.91021 20.3438 9.01903 20.3438 10.1752Z" fill="var(--fill-0, #00CE00)"/>
</g>
</svg>
